<?xml version="1.0" encoding="UTF-8"?>
<svg id="Layer_2" data-name="Layer 2" xmlns="http://www.w3.org/2000/svg" viewBox="0 0 224.2 172.13">
  <defs>
    <style>
      .cls-1 {
        fill: #2e3192;
      }
    </style>
  </defs>
  <g id="Layer_1-2" data-name="Layer 1">
    <path class="cls-1" d="M199.05,66.13l-86.5,35.86L1.59,55.1c-2.98-3.98-1.67-9.23,3.08-10.85C38.28,33.18,73.49,11.47,106.77,1.35c2.86-.87,5.44-1.92,8.54-1l103.44,43.57c13.94,9.51-2.27,14.97-11.08,18.1l-.64,57.4c4.9,2.61,7.37,9.74,6.96,15.06-.2,2.61-2,5.38-1.88,8.07.3,6.32,8.63,22.49,6.81,27.92-1.59,4.74-11.95-2.54-16.34-2.4-4.91.16-13.23,7.7-15.81,1.78-1.39-3.2,5.2-21.83,5.3-27.28.07-3.76-2.12-6.81-1.82-10.67.31-4.09,2.75-9.57,6.08-12.05.78-.59,2.72-.59,2.72-.73v-53Z"/>
    <path class="cls-1" d="M181.05,83.13v38.5c0,8.86-15.58,16.22-22.64,19.36-27.58,12.24-56.45,13.4-84.88,3.16-6.11-2.2-29.48-12.54-29.48-19.52v-42.5l61.32,26.18c7.63,2.46,8.38,1.87,15.67-.7,17.98-6.33,38.38-18.9,55.99-24.01,1.35-.39,2.62-.65,4.03-.47Z"/>
  </g>
</svg>