<?xml version="1.0" encoding="UTF-8"?>
<svg id="Layer_2" data-name="Layer 2" xmlns="http://www.w3.org/2000/svg" viewBox="0 0 1920 1809">
  <defs>
    <style>
      .cls-1 {
        fill: #069548;
      }
    </style>
  </defs>
  <g id="Layer_1-2" data-name="Layer 1">
    <g>
      <path class="cls-1" d="M1382.6,0l41.36,4.13c46.69,6.61,94.15,18.4,137.16,37.79.91.41,1.8-.63,1.45,1.59l-185.57,258.28c-1.97-.34-3.79-.83-5.85-.84-296.91-1.56-593.86,1.28-890.77.06-91.52,6.08-170.73,82.2-171.47,175.48-1.64,289.11-1.67,578.79.02,868,8.67,88.73,83.19,157.6,171.39,163.56h893.82c91.59-6.34,168.3-81.82,171.45-174.5l.41-451.59,306.44-425.96,1.06,12.45v873.09c-8.68,239.75-192.67,432.94-428.56,463.32l-37.35,4.14H467.87l-39.35-4.14c-211.71-26.87-389.46-190.91-422.35-403.52L.01,1348v-3C-.02,1051.35.04,757.65.01,464,12.8,208.93,214.76,16.22,467.46,1.05l2.41-1.05h912.73Z"/>
      <path class="cls-1" d="M1919.44,172c.74,8.82.74,24.18,0,33-2.55,30.17-15.15,62.9-31.18,88.31-235.05,335.58-462.33,676.72-697.79,1012-31.9,45.43-55.93,79.79-112.57,96.4-61.76,18.11-109.47,2.07-159.06-34.32-166.63-122.25-326.63-254.02-492.48-377.37-162.29-148.09,16.8-420.83,211.78-291.84l352.94,269.75,3.46-3.6c207.86-300.74,413.76-602.95,623.48-902.34,106.9-116.29,288.45-43.66,301.42,110.01Z"/>
    </g>
  </g>
</svg>