<?xml version="1.0" encoding="UTF-8"?>
<svg id="Layer_2" data-name="Layer 2" xmlns="http://www.w3.org/2000/svg" viewBox="0 0 256.2 255.87">
  <defs>
    <style>
      .cls-1 {
        fill: #ed1c24;
      }
    </style>
  </defs>
  <g id="Layer_1-2" data-name="Layer 1">
    <g>
      <path class="cls-1" d="M117.83.41c100.79-7.87,171.54,100.17,122.37,189.37-48.72,88.4-176.47,88.06-224.69-.65C-28.6,107.99,26.35,7.55,117.83.41ZM105.73,53.31c-4.02.89-3.63,13.82-1.06,14.66l47.42-.3c1.44-1,2.32-13.57-1.76-14.36h-44.6ZM188.03,95.11c0-7.68,1.89-16.62-7.56-18.94l-102.99-.1c-11.29,1.03-9.57,10.24-9.45,19.05h120ZM178.03,104.11h-100l7.53,96.97c1.63,1.89,3.65,1.87,5.92,2.08,23.23,2.1,49.53-1.71,73.11.02,4.62.42,6.77-3.68,7.35-7.65l6.09-91.41Z"/>
      <path class="cls-1" d="M109.03,119.61c1.04-3.32,8-2.03,8,0v63c0,.5-2.51,2.61-3.55,2.55-1.28.53-4.45-1.82-4.45-2.55v-63Z"/>
      <path class="cls-1" d="M139.03,119.61c1.04-3.32,8-2.03,8,0v63c0,.5-2.51,2.61-3.55,2.55-1.28.53-4.45-1.82-4.45-2.55v-63Z"/>
    </g>
  </g>
</svg>