<?xml version="1.0" encoding="UTF-8"?>
<svg id="Layer_2" data-name="Layer 2" xmlns="http://www.w3.org/2000/svg" viewBox="0 0 512 512">
  <defs>
    <style>
      .cls-1 {
        fill: #ed2024;
      }

      .cls-2 {
        fill: #010301;
      }

      .cls-3 {
        fill: #fefffe;
      }
    </style>
  </defs>
  <g id="Layer_1-2" data-name="Layer 1">
    <path class="cls-2" d="M512,10.23h-6c1.01-1.64,5.05-1.61,6,0Z"/>
    <path class="cls-1" d="M280,512c-1.54-1.67-6.42-1.68-8,0h-32c-1.54-1.67-6.42-1.68-8,0h-2c.56-3.23-1.64-1.71-3.5-1.95C106.84,494.53,17.02,405.48,1.95,285.5c-.24-1.87,1.27-4.06-1.95-3.5v-3c1.61-.95,1.64-4.99,0-6v-34c1.65-1.26,1.65-5.74,0-7v-2c3.23.56,1.71-1.64,1.95-3.5C17.46,106.9,106.54,17.02,226.5,1.95c1.87-.24,4.06,1.27,3.5-1.95h2c1.26,1.65,5.74,1.65,7,0h35c.95,1.61,4.99,1.64,6,0h2c-.56,3.23,1.64,1.71,3.5,1.95,119.63,15.51,209.48,104.65,224.55,224.55.24,1.87-1.27,4.06,1.95,3.5v2c-1.65,1.26-1.65,5.74,0,7v34c-1.65,1.26-1.65,5.74,0,7v2c-3.22-.56-1.72,1.63-1.95,3.5-15.07,119.98-104.88,209.03-224.55,224.55-1.87.24-4.06-1.27-3.5,1.95h-2ZM286,321V86.5c0-12.31-17.94-26.09-29.61-27.39-16.28-1.82-38.39,12.11-38.39,29.39v232.5l-77.99-77.51c-37.5-28.07-77.52,21.03-44.04,53.04l154,154.01,2.39,1.39,158.66-158.4c30.38-35.89-15.46-78.07-49.04-48.04l-75.99,75.51Z"/>
    <path class="cls-3" d="M286,321l75.99-75.51c33.58-30.03,79.42,12.15,49.04,48.04l-158.66,158.4-2.39-1.39-154-154.01c-33.48-32.01,6.54-81.11,44.04-53.04l77.99,77.51V88.5c0-17.28,22.11-31.21,38.39-29.39,11.66,1.3,29.61,15.08,29.61,27.39v234.5Z"/>
  </g>
</svg>