<?xml version="1.0" encoding="UTF-8"?>
<svg id="Layer_2" data-name="Layer 2" xmlns="http://www.w3.org/2000/svg" viewBox="0 0 256.05 256.1">
  <defs>
    <style>
      .cls-1 {
        fill: #1c75bc;
      }
    </style>
  </defs>
  <g id="Layer_1-2" data-name="Layer 1">
    <path class="cls-1" d="M161.01,41.05l-70.82,72.68c-6.16,18.07-26.95,53.19-.7,64.34,14.35,6.1,37.94-7.35,52.21-11.83,25.95-21.97,48.19-48.21,73.31-71.19v138.5c0,9.08-15,22.66-24.49,22.51l-165.05.04C12.12,254.87,1.91,244.68,0,231.56V65.55c-.15-9.49,13.43-24.49,22.51-24.49h138.5Z"/>
    <path class="cls-1" d="M197.51,27.07l31.48,31.48-94.47,94.51c-7.81,1.77-31.36,13.09-37.77,11.82-4.2-.84-6.11-5.03-5.54-9.06.51-3.59,10-31.53,11.79-34.28L197.51,27.07Z"/>
    <path class="cls-1" d="M226.75.29c1.98-.34,3.53-.41,5.52-.01,4.7.95,22.56,18.81,23.51,23.51,2.14,10.58-9.41,16.23-15.41,23.19l-31.29-30.56c3.7-4.55,12.1-15.16,17.67-16.13Z"/>
  </g>
</svg>