<?xml version="1.0" encoding="UTF-8"?>
<svg id="Layer_2" data-name="Layer 2" xmlns="http://www.w3.org/2000/svg" viewBox="0 0 474 474">
  <defs>
    <style>
      .cls-1 {
        fill: #ed1c24;
      }
    </style>
  </defs>
  <g id="Layer_1-2" data-name="Layer 1">
    <path class="cls-1" d="M264,0c-.56,3.22,1.63,1.71,3.5,1.95,108.43,13.9,188.36,96.54,204.54,203.56.28,1.86-1.26,4.05,1.96,3.49v56c-3.22-.56-1.68,1.62-1.97,3.49-15.71,104.39-97.87,193.36-205.55,203.54-1.9.18-4.04-1.19-3.49,1.97h-52c.56-3.22-1.63-1.71-3.5-1.95C99.24,458.17,15.3,373.85,1.95,265.5c-.23-1.87,1.26-4.06-1.95-3.5v-49c2.48-.72,1.75-2.71,2.01-4.49C18.2,97.74,95.46,18.65,206.51,1.97c1.87-.28,4.05,1.25,3.49-1.97h54ZM168.7,127.11l-48.74,49.39,65.89,67.83-65.78,68.04,49.43,49.62,67.86-66.91,68,66.86,49.56-50.29-66.86-68,66.91-67.14-50.34-49.43-67.94,65.82c-9.08-6.17-63.43-67.02-68-65.79Z"/>
  </g>
</svg>