<?xml version="1.0" encoding="UTF-8"?>
<svg id="Layer_2" data-name="Layer 2" xmlns="http://www.w3.org/2000/svg" viewBox="0 0 512 512">
  <defs>
    <style>
      .cls-1 {
        fill: #24b24b;
      }

      .cls-2 {
        fill: #fefffe;
      }
    </style>
  </defs>
  <g id="Layer_1-2" data-name="Layer 1">
    <path class="cls-1" d="M232,0c1.54,1.67,6.42,1.68,8,0h32c1.54,1.67,6.42,1.68,8,0h2c-.56,3.23,1.64,1.71,3.5,1.95,119.66,15.51,209.47,104.57,224.55,224.55.24,1.87-1.27,4.06,1.95,3.5v3c-1.61.95-1.64,4.99,0,6v34c-1.65,1.26-1.65,5.74,0,7v2c-3.23-.56-1.71,1.64-1.95,3.5-15.51,119.6-104.59,209.48-224.55,224.55-1.87.24-4.06-1.27-3.5,1.95h-2c-1.26-1.65-5.74-1.65-7,0h-35c-.95-1.61-4.99-1.64-6,0h-2c.56-3.23-1.64-1.71-3.5-1.95C106.87,494.54,17.01,405.4,1.95,285.5c-.24-1.87,1.27-4.06-1.95-3.5v-2c1.65-1.26,1.65-5.74,0-7v-34c1.65-1.26,1.65-5.74,0-7v-2c3.22.56,1.72-1.63,1.95-3.5C17.02,106.51,106.84,17.47,226.5,1.95c1.87-.24,4.06,1.27,3.5-1.95h2ZM226,191v234.5c0,12.31,17.94,26.09,29.61,27.39,16.28,1.82,38.39-12.11,38.39-29.39v-232.5l77.99,77.51c37.5,28.07,77.52-21.03,44.04-53.04L262.03,61.47l-2.39-1.39L100.97,218.47c-30.38,35.89,15.46,78.07,49.04,48.04l75.99-75.51Z"/>
    <path class="cls-2" d="M226,191l-75.99,75.51c-33.58,30.03-79.42-12.15-49.04-48.04L259.64,60.07l2.39,1.39,154,154.01c33.48,32.01-6.54,81.11-44.04,53.04l-77.99-77.51v232.5c0,17.28-22.11,31.21-38.39,29.39-11.66-1.3-29.61-15.08-29.61-27.39v-234.5Z"/>
  </g>
</svg>